<?xml version="1.0"?>
<svg xmlns="http://www.w3.org/2000/svg" height="512px" viewBox="-48 0 512 512" width="512px" class=""><g transform="matrix(1 0 0 1 0 0)"><path d="m402.058594 367.5625-38.695313-42.941406v-104.769532c0-5.0625-.261719-10.144531-.746093-15.175781 11.070312-15.574219 17.585937-34.597656 17.585937-55.117187 0-52.566406-42.765625-95.332032-95.332031-95.332032-10.460938 0-20.53125 1.699219-29.957032 4.824219v-11.914062c-.003906-25.992188-21.144531-47.136719-47.136718-47.136719-25.988282 0-47.132813 21.144531-47.132813 47.136719v24.4375c-62.816406 20.011719-108.449219 78.910156-108.449219 148.273437v104.769532l-38.714843 42.957031c-18.074219 18.402343-17.976563 48.078125.304687 66.355469 8.902344 8.902343 20.738282 13.804687 33.316406 13.800781h.023438 82.828125c7.035156 36.558593 39.246094 64.269531 77.824219 64.269531s70.792968-27.710938 77.824218-64.269531h82.84375c25.988282 0 47.132813-21.140625 47.132813-47.132813 0-12.449218-4.796875-24.167968-13.519531-33.035156zm-51.855469-218.003906c0 36.027344-29.308594 65.335937-65.332031 65.335937-36.027344 0-65.335938-29.308593-65.335938-65.335937 0-36.023438 29.308594-65.332032 65.335938-65.332032 36.023437 0 65.332031 29.304688 65.332031 65.332032zm-159.558594-102.421875c0-9.449219 7.6875-17.136719 17.132813-17.136719 9.449218 0 17.132812 7.6875 17.132812 17.136719v18.078125c-5.675781-.625-11.398437-.945313-17.132812-.945313-5.789063 0-11.503906.328125-17.132813.945313zm17.132813 434.863281c-21.9375 0-40.570313-14.414062-46.933594-34.269531h93.867188c-6.359376 19.855469-24.996094 34.269531-46.933594 34.269531zm160.667968-64.269531h-321.324218c-.003906 0-.007813 0-.011719 0-4.574219 0-8.878906-1.78125-12.113281-5.015625-6.679688-6.679688-6.679688-17.550782 0-24.230469.183594-.183594.363281-.371094.535156-.566406l42.808594-47.496094c2.480468-2.753906 3.855468-6.332031 3.855468-10.039063v-110.53125c0-69.070312 56.046876-125.289062 125.050782-125.578124-11.144532 15.605468-17.710938 34.691406-17.710938 55.285156 0 52.566406 42.769532 95.335937 95.335938 95.335937 17.691406 0 34.273437-4.855469 48.492187-13.289062v98.777343c0 3.710938 1.371094 7.285157 3.855469 10.042969l42.792969 47.484375c.171875.191406.355469.382813.539062.570313 3.242188 3.234375 5.027344 7.539062 5.027344 12.117187 0 9.449219-7.6875 17.132813-17.132813 17.132813zm0 0" data-original="#000000" class="active-path" data-old_color="#000000" fill="#BCC3CF"/></g> </svg>
